<?xml version="1.0" encoding="UTF-8" standalone="no"?>
<!DOCTYPE svg PUBLIC "-//W3C//DTD SVG 1.1//EN"
 "http://www.w3.org/Graphics/SVG/1.1/DTD/svg11.dtd">
<!-- Generated by graphviz version 12.2.1 (20241206.2353)
 -->
<!-- Title: SchemaCrawler_Diagram Pages: 1 -->
<svg width="2063pt" height="585pt"
 viewBox="0.00 0.00 2062.75 584.88" xmlns="http://www.w3.org/2000/svg" xmlns:xlink="http://www.w3.org/1999/xlink">
<g id="graph0" class="graph" transform="scale(1 1) rotate(0) translate(4 580.88)">
<title>SchemaCrawler_Diagram</title>
<polygon fill="white" stroke="none" points="-4,4 -4,-580.88 2058.75,-580.88 2058.75,4 -4,4"/>
<text text-anchor="start" x="1779.5" y="-32.2" font-family="Helvetica,sans-Serif" font-size="14.00">generated by</text>
<text text-anchor="start" x="1876.5" y="-32.2" font-family="Helvetica,sans-Serif" font-size="14.00">SchemaCrawler 17.11.4</text>
<text text-anchor="start" x="1779.5" y="-10.95" font-family="Helvetica,sans-Serif" font-size="14.00">generated on</text>
<text text-anchor="start" x="1876.5" y="-10.95" font-family="Helvetica,sans-Serif" font-size="14.00">2026&#45;07&#45;16 19:28:14</text>
<polygon fill="none" stroke="#888888" points="1776.5,-4 1776.5,-48.5 2046.75,-48.5 2046.75,-4 1776.5,-4"/>
<!-- alembic_version_d1a9dfb8 -->
<g id="node1" class="node">
<title>alembic_version_d1a9dfb8</title>
<polygon fill="#e9c2f2" stroke="none" points="1708.12,-112.25 1708.12,-133.5 1889.12,-133.5 1889.12,-112.25 1708.12,-112.25"/>
<text text-anchor="start" x="1710.12" y="-119.2" font-family="Helvetica,sans-Serif" font-weight="bold" font-style="italic" font-size="14.00">public.alembic_version</text>
<polygon fill="#e9c2f2" stroke="none" points="1889.12,-112.25 1889.12,-133.5 2031.12,-133.5 2031.12,-112.25 1889.12,-112.25"/>
<text text-anchor="start" x="1984.12" y="-118.2" font-family="Helvetica,sans-Serif" font-size="14.00">[table]</text>
<text text-anchor="start" x="1710.12" y="-97.95" font-family="Helvetica,sans-Serif" font-weight="bold" font-style="italic" font-size="14.00">version_num</text>
<text text-anchor="start" x="1847.5" y="-96.95" font-family="Helvetica,sans-Serif" font-size="14.00"> </text>
<text text-anchor="start" x="1891.12" y="-96.95" font-family="Helvetica,sans-Serif" font-size="14.00">varchar(32) not null</text>
<polygon fill="none" stroke="#888888" points="1707.12,-90 1707.12,-134.5 2032.12,-134.5 2032.12,-90 1707.12,-90"/>
</g>
<!-- openings_d3ee6531 -->
<g id="node2" class="node">
<title>openings_d3ee6531</title>
<polygon fill="#e9c2f2" stroke="none" points="9,-163.75 9,-185 136,-185 136,-163.75 9,-163.75"/>
<text text-anchor="start" x="11" y="-170.7" font-family="Helvetica,sans-Serif" font-weight="bold" font-style="italic" font-size="14.00">public.openings</text>
<polygon fill="#e9c2f2" stroke="none" points="136,-163.75 136,-185 249.5,-185 249.5,-163.75 136,-163.75"/>
<text text-anchor="start" x="202.5" y="-169.7" font-family="Helvetica,sans-Serif" font-size="14.00">[table]</text>
<text text-anchor="start" x="11" y="-149.45" font-family="Helvetica,sans-Serif" font-weight="bold" font-style="italic" font-size="14.00">eco</text>
<text text-anchor="start" x="108.62" y="-148.45" font-family="Helvetica,sans-Serif" font-size="14.00"> </text>
<text text-anchor="start" x="138" y="-148.45" font-family="Helvetica,sans-Serif" font-size="14.00">varchar not null</text>
<text text-anchor="start" x="11" y="-128.2" font-family="Helvetica,sans-Serif" font-weight="bold" font-style="italic" font-size="14.00">name</text>
<text text-anchor="start" x="108.62" y="-127.2" font-family="Helvetica,sans-Serif" font-size="14.00"> </text>
<text text-anchor="start" x="138" y="-127.2" font-family="Helvetica,sans-Serif" font-size="14.00">varchar not null</text>
<text text-anchor="start" x="11" y="-105.95" font-family="Helvetica,sans-Serif" font-size="14.00">epd</text>
<text text-anchor="start" x="108.62" y="-105.95" font-family="Helvetica,sans-Serif" font-size="14.00"> </text>
<text text-anchor="start" x="138" y="-105.95" font-family="Helvetica,sans-Serif" font-size="14.00">text</text>
<text text-anchor="start" x="11" y="-84.7" font-family="Helvetica,sans-Serif" font-size="14.00">pgn</text>
<text text-anchor="start" x="108.62" y="-84.7" font-family="Helvetica,sans-Serif" font-size="14.00"> </text>
<text text-anchor="start" x="138" y="-84.7" font-family="Helvetica,sans-Serif" font-size="14.00">text</text>
<text text-anchor="start" x="11" y="-63.45" font-family="Helvetica,sans-Serif" font-size="14.00">uci_moves</text>
<text text-anchor="start" x="108.62" y="-63.45" font-family="Helvetica,sans-Serif" font-size="14.00"> </text>
<text text-anchor="start" x="138" y="-63.45" font-family="Helvetica,sans-Serif" font-size="14.00">text</text>
<polygon fill="none" stroke="#888888" points="8,-56.5 8,-186 250.5,-186 250.5,-56.5 8,-56.5"/>
</g>
<!-- training_sessions_e3215d78 -->
<g id="node3" class="node">
<title>training_sessions_e3215d78</title>
<polygon fill="#e9c2f2" stroke="none" points="514.25,-247.38 514.25,-268.62 705,-268.62 705,-247.38 514.25,-247.38"/>
<text text-anchor="start" x="516.25" y="-254.32" font-family="Helvetica,sans-Serif" font-weight="bold" font-style="italic" font-size="14.00">public.training_sessions</text>
<polygon fill="#e9c2f2" stroke="none" points="705,-247.38 705,-268.62 853,-268.62 853,-247.38 705,-247.38"/>
<text text-anchor="start" x="806" y="-253.32" font-family="Helvetica,sans-Serif" font-size="14.00">[table]</text>
<text text-anchor="start" x="516.25" y="-233.07" font-family="Helvetica,sans-Serif" font-weight="bold" font-style="italic" font-size="14.00">id</text>
<text text-anchor="start" x="660.38" y="-232.07" font-family="Helvetica,sans-Serif" font-size="14.00"> </text>
<text text-anchor="start" x="707" y="-232.07" font-family="Helvetica,sans-Serif" font-size="14.00">serial not null</text>
<text text-anchor="start" x="660.38" y="-210.82" font-family="Helvetica,sans-Serif" font-size="14.00"> </text>
<text text-anchor="start" x="707" y="-210.82" font-family="Helvetica,sans-Serif" font-size="14.00">auto&#45;incremented</text>
<text text-anchor="start" x="516.25" y="-189.57" font-family="Helvetica,sans-Serif" font-size="14.00">status</text>
<text text-anchor="start" x="660.38" y="-189.57" font-family="Helvetica,sans-Serif" font-size="14.00"> </text>
<text text-anchor="start" x="707" y="-189.57" font-family="Helvetica,sans-Serif" font-size="14.00">varchar not null</text>
<text text-anchor="start" x="516.25" y="-168.32" font-family="Helvetica,sans-Serif" font-size="14.00">created_at</text>
<text text-anchor="start" x="660.38" y="-168.32" font-family="Helvetica,sans-Serif" font-size="14.00"> </text>
<text text-anchor="start" x="707" y="-168.32" font-family="Helvetica,sans-Serif" font-size="14.00">timestamptz not null</text>
<text text-anchor="start" x="516.25" y="-147.07" font-family="Helvetica,sans-Serif" font-size="14.00">opening_eco</text>
<text text-anchor="start" x="660.38" y="-147.07" font-family="Helvetica,sans-Serif" font-size="14.00"> </text>
<text text-anchor="start" x="707" y="-147.07" font-family="Helvetica,sans-Serif" font-size="14.00">varchar</text>
<text text-anchor="start" x="516.25" y="-125.83" font-family="Helvetica,sans-Serif" font-size="14.00">opening_name</text>
<text text-anchor="start" x="660.38" y="-125.83" font-family="Helvetica,sans-Serif" font-size="14.00"> </text>
<text text-anchor="start" x="707" y="-125.83" font-family="Helvetica,sans-Serif" font-size="14.00">varchar</text>
<polygon fill="none" stroke="#888888" points="513.25,-118.88 513.25,-269.62 854,-269.62 854,-118.88 513.25,-118.88"/>
</g>
<!-- training_sessions_e3215d78&#45;&gt;openings_d3ee6531 -->
<g id="edge1" class="edge">
<title>training_sessions_e3215d78:w&#45;&gt;openings_d3ee6531:e</title>
<path fill="none" stroke="black" d="M493.9,-151.76C395.88,-151.9 362.57,-153.05 260.29,-153.12"/>
<polygon fill="black" stroke="black" points="502.92,-151.76 512.92,-156.25 508.25,-151.75 512.58,-151.75 512.58,-151.75 512.58,-151.75 508.25,-151.75 512.91,-147.25 502.92,-151.76"/>
<ellipse fill="none" stroke="black" cx="497.2" cy="-151.76" rx="4" ry="4"/>
<polygon fill="black" stroke="black" points="251.5,-158.12 251.5,-148.12 253.5,-148.12 253.5,-158.12 251.5,-158.12"/>
<polyline fill="none" stroke="black" points="250.5,-153.12 255.5,-153.12"/>
<polygon fill="black" stroke="black" points="256.5,-158.12 256.5,-148.12 258.5,-148.12 258.5,-158.12 256.5,-158.12"/>
<polyline fill="none" stroke="black" points="255.5,-153.12 260.5,-153.12"/>
<text text-anchor="start" x="276.5" y="-157.05" font-family="Helvetica,sans-Serif" font-size="14.00">fk_training_sessions_openings</text>
</g>
<!-- training_sessions_e3215d78&#45;&gt;openings_d3ee6531 -->
<g id="edge2" class="edge">
<title>training_sessions_e3215d78:w&#45;&gt;openings_d3ee6531:e</title>
<path fill="none" stroke="black" d="M493.85,-130.48C404.31,-130.34 374.92,-129.24 276.5,-131 269.09,-131.13 265.25,-131.45 260.41,-131.67"/>
<polygon fill="black" stroke="black" points="502.92,-130.49 512.91,-135 508.25,-130.5 512.58,-130.5 512.58,-130.5 512.58,-130.5 508.25,-130.5 512.92,-126 502.92,-130.49"/>
<ellipse fill="none" stroke="black" cx="497.2" cy="-130.49" rx="4" ry="4"/>
<polygon fill="black" stroke="black" points="251.6,-136.85 251.4,-126.86 253.4,-126.81 253.6,-136.81 251.6,-136.85"/>
<polyline fill="none" stroke="black" points="250.5,-131.88 255.5,-131.77"/>
<polygon fill="black" stroke="black" points="256.6,-136.75 256.39,-126.75 258.39,-126.71 258.6,-136.71 256.6,-136.75"/>
<polyline fill="none" stroke="black" points="255.5,-131.77 260.5,-131.67"/>
<text text-anchor="start" x="276.5" y="-134.95" font-family="Helvetica,sans-Serif" font-size="14.00">fk_training_sessions_openings</text>
</g>
<!-- training_items_d80bd731 -->
<g id="node4" class="node">
<title>training_items_d80bd731</title>
<polygon fill="#e9c2f2" stroke="none" points="1120,-289.38 1120,-310.62 1287.5,-310.62 1287.5,-289.38 1120,-289.38"/>
<text text-anchor="start" x="1122" y="-296.32" font-family="Helvetica,sans-Serif" font-weight="bold" font-style="italic" font-size="14.00">public.training_items</text>
<polygon fill="#e9c2f2" stroke="none" points="1287.5,-289.38 1287.5,-310.62 1415.25,-310.62 1415.25,-289.38 1287.5,-289.38"/>
<text text-anchor="start" x="1368.25" y="-295.32" font-family="Helvetica,sans-Serif" font-size="14.00">[table]</text>
<text text-anchor="start" x="1122" y="-275.07" font-family="Helvetica,sans-Serif" font-weight="bold" font-style="italic" font-size="14.00">id</text>
<text text-anchor="start" x="1263.12" y="-274.07" font-family="Helvetica,sans-Serif" font-size="14.00"> </text>
<text text-anchor="start" x="1289.5" y="-274.07" font-family="Helvetica,sans-Serif" font-size="14.00">serial not null</text>
<text text-anchor="start" x="1263.12" y="-252.82" font-family="Helvetica,sans-Serif" font-size="14.00"> </text>
<text text-anchor="start" x="1289.5" y="-252.82" font-family="Helvetica,sans-Serif" font-size="14.00">auto&#45;incremented</text>
<text text-anchor="start" x="1122" y="-231.57" font-family="Helvetica,sans-Serif" font-size="14.00">session_id</text>
<text text-anchor="start" x="1263.12" y="-231.57" font-family="Helvetica,sans-Serif" font-size="14.00"> </text>
<text text-anchor="start" x="1289.5" y="-231.57" font-family="Helvetica,sans-Serif" font-size="14.00">int4 not null</text>
<text text-anchor="start" x="1122" y="-210.32" font-family="Helvetica,sans-Serif" font-size="14.00">order_index</text>
<text text-anchor="start" x="1263.12" y="-210.32" font-family="Helvetica,sans-Serif" font-size="14.00"> </text>
<text text-anchor="start" x="1289.5" y="-210.32" font-family="Helvetica,sans-Serif" font-size="14.00">int4 not null</text>
<text text-anchor="start" x="1122" y="-189.07" font-family="Helvetica,sans-Serif" font-size="14.00">fen</text>
<text text-anchor="start" x="1263.12" y="-189.07" font-family="Helvetica,sans-Serif" font-size="14.00"> </text>
<text text-anchor="start" x="1289.5" y="-189.07" font-family="Helvetica,sans-Serif" font-size="14.00">varchar not null</text>
<text text-anchor="start" x="1122" y="-167.82" font-family="Helvetica,sans-Serif" font-size="14.00">correct_move_uci</text>
<text text-anchor="start" x="1263.12" y="-167.82" font-family="Helvetica,sans-Serif" font-size="14.00"> </text>
<text text-anchor="start" x="1289.5" y="-167.82" font-family="Helvetica,sans-Serif" font-size="14.00">varchar not null</text>
<polygon fill="none" stroke="#888888" points="1119,-160.88 1119,-311.62 1416.25,-311.62 1416.25,-160.88 1119,-160.88"/>
</g>
<!-- training_items_d80bd731&#45;&gt;training_sessions_e3215d78 -->
<g id="edge4" class="edge">
<title>training_items_d80bd731:w&#45;&gt;training_sessions_e3215d78:e</title>
<path fill="none" stroke="black" d="M1103.65,-236.25C1001.58,-236.29 968.49,-236.72 864,-236.75"/>
<polygon fill="black" stroke="black" points="1108.67,-236.25 1118.67,-240.75 1114,-236.25 1118.33,-236.25 1118.33,-236.25 1118.33,-236.25 1114,-236.25 1118.66,-231.75 1108.67,-236.25"/>
<polygon fill="black" stroke="black" points="1106.45,-231.25 1106.45,-241.25 1104.45,-241.25 1104.45,-231.25 1106.45,-231.25"/>
<polyline fill="none" stroke="black" points="1107.45,-236.25 1102.45,-236.25"/>
<polygon fill="black" stroke="black" points="855,-241.75 855,-231.75 857,-231.75 857,-241.75 855,-241.75"/>
<polyline fill="none" stroke="black" points="854,-236.75 859,-236.75"/>
<polygon fill="black" stroke="black" points="860,-241.75 860,-231.75 862,-231.75 862,-241.75 860,-241.75"/>
<polyline fill="none" stroke="black" points="859,-236.75 864,-236.75"/>
<text text-anchor="start" x="880" y="-240.69" font-family="Helvetica,sans-Serif" font-size="14.00">training_items_session_id_fkey</text>
</g>
<!-- training_responses_8ccbbe43 -->
<g id="node5" class="node">
<title>training_responses_8ccbbe43</title>
<polygon fill="#e9c2f2" stroke="none" points="1693.5,-331.62 1693.5,-352.88 1897.75,-352.88 1897.75,-331.62 1693.5,-331.62"/>
<text text-anchor="start" x="1695.5" y="-338.57" font-family="Helvetica,sans-Serif" font-weight="bold" font-style="italic" font-size="14.00">public.training_responses</text>
<polygon fill="#e9c2f2" stroke="none" points="1897.75,-331.62 1897.75,-352.88 2045.75,-352.88 2045.75,-331.62 1897.75,-331.62"/>
<text text-anchor="start" x="1998.75" y="-337.57" font-family="Helvetica,sans-Serif" font-size="14.00">[table]</text>
<text text-anchor="start" x="1695.5" y="-317.32" font-family="Helvetica,sans-Serif" font-weight="bold" font-style="italic" font-size="14.00">id</text>
<text text-anchor="start" x="1866.62" y="-316.32" font-family="Helvetica,sans-Serif" font-size="14.00"> </text>
<text text-anchor="start" x="1899.75" y="-316.32" font-family="Helvetica,sans-Serif" font-size="14.00">serial not null</text>
<text text-anchor="start" x="1866.62" y="-295.07" font-family="Helvetica,sans-Serif" font-size="14.00"> </text>
<text text-anchor="start" x="1899.75" y="-295.07" font-family="Helvetica,sans-Serif" font-size="14.00">auto&#45;incremented</text>
<text text-anchor="start" x="1695.5" y="-273.82" font-family="Helvetica,sans-Serif" font-size="14.00">item_id</text>
<text text-anchor="start" x="1866.62" y="-273.82" font-family="Helvetica,sans-Serif" font-size="14.00"> </text>
<text text-anchor="start" x="1899.75" y="-273.82" font-family="Helvetica,sans-Serif" font-size="14.00">int4 not null</text>
<text text-anchor="start" x="1695.5" y="-252.57" font-family="Helvetica,sans-Serif" font-size="14.00">submitted_move_uci</text>
<text text-anchor="start" x="1866.62" y="-252.57" font-family="Helvetica,sans-Serif" font-size="14.00"> </text>
<text text-anchor="start" x="1899.75" y="-252.57" font-family="Helvetica,sans-Serif" font-size="14.00">varchar not null</text>
<text text-anchor="start" x="1695.5" y="-231.32" font-family="Helvetica,sans-Serif" font-size="14.00">is_correct</text>
<text text-anchor="start" x="1866.62" y="-231.32" font-family="Helvetica,sans-Serif" font-size="14.00"> </text>
<text text-anchor="start" x="1899.75" y="-231.32" font-family="Helvetica,sans-Serif" font-size="14.00">bool not null</text>
<text text-anchor="start" x="1695.5" y="-210.07" font-family="Helvetica,sans-Serif" font-size="14.00">reason</text>
<text text-anchor="start" x="1866.62" y="-210.07" font-family="Helvetica,sans-Serif" font-size="14.00"> </text>
<text text-anchor="start" x="1899.75" y="-210.07" font-family="Helvetica,sans-Serif" font-size="14.00">varchar not null</text>
<text text-anchor="start" x="1695.5" y="-188.82" font-family="Helvetica,sans-Serif" font-size="14.00">fen_after</text>
<text text-anchor="start" x="1866.62" y="-188.82" font-family="Helvetica,sans-Serif" font-size="14.00"> </text>
<text text-anchor="start" x="1899.75" y="-188.82" font-family="Helvetica,sans-Serif" font-size="14.00">varchar</text>
<text text-anchor="start" x="1695.5" y="-167.57" font-family="Helvetica,sans-Serif" font-size="14.00">created_at</text>
<text text-anchor="start" x="1866.62" y="-167.57" font-family="Helvetica,sans-Serif" font-size="14.00"> </text>
<text text-anchor="start" x="1899.75" y="-167.57" font-family="Helvetica,sans-Serif" font-size="14.00">timestamptz not null</text>
<polygon fill="none" stroke="#888888" points="1692.5,-160.62 1692.5,-353.88 2046.75,-353.88 2046.75,-160.62 1692.5,-160.62"/>
</g>
<!-- training_responses_8ccbbe43&#45;&gt;training_items_d80bd731 -->
<g id="edge3" class="edge">
<title>training_responses_8ccbbe43:w&#45;&gt;training_items_d80bd731:e</title>
<path fill="none" stroke="black" d="M1682.63,-278.5C1571.22,-278.51 1537.57,-278.74 1426.19,-278.75"/>
<polygon fill="black" stroke="black" points="1691.5,-273.5 1691.5,-283.5 1689.5,-283.5 1689.5,-273.5 1691.5,-273.5"/>
<polyline fill="none" stroke="black" points="1692.5,-278.5 1687.5,-278.5"/>
<polygon fill="black" stroke="black" points="1686.5,-273.5 1686.5,-283.5 1684.5,-283.5 1684.5,-273.5 1686.5,-273.5"/>
<polyline fill="none" stroke="black" points="1687.5,-278.5 1682.5,-278.5"/>
<polygon fill="black" stroke="black" points="1417.25,-283.75 1417.25,-273.75 1419.25,-273.75 1419.25,-283.75 1417.25,-283.75"/>
<polyline fill="none" stroke="black" points="1416.25,-278.75 1421.25,-278.75"/>
<polygon fill="black" stroke="black" points="1422.25,-283.75 1422.25,-273.75 1424.25,-273.75 1424.25,-283.75 1422.25,-283.75"/>
<polyline fill="none" stroke="black" points="1421.25,-278.75 1426.25,-278.75"/>
<text text-anchor="start" x="1442.25" y="-282.7" font-family="Helvetica,sans-Serif" font-size="14.00">training_responses_item_id_fkey</text>
</g>
<!-- users_f89f9d1e -->
<g id="node6" class="node">
<title>users_f89f9d1e</title>
<polygon fill="#e9c2f2" stroke="none" points="1734.62,-550.62 1734.62,-571.88 1853.62,-571.88 1853.62,-550.62 1734.62,-550.62"/>
<text text-anchor="start" x="1736.62" y="-557.58" font-family="Helvetica,sans-Serif" font-weight="bold" font-style="italic" font-size="14.00">public.users</text>
<polygon fill="#e9c2f2" stroke="none" points="1853.62,-550.62 1853.62,-571.88 2004.62,-571.88 2004.62,-550.62 1853.62,-550.62"/>
<text text-anchor="start" x="1957.62" y="-556.58" font-family="Helvetica,sans-Serif" font-size="14.00">[table]</text>
<text text-anchor="start" x="1736.62" y="-536.33" font-family="Helvetica,sans-Serif" font-weight="bold" font-style="italic" font-size="14.00">id</text>
<text text-anchor="start" x="1847.12" y="-535.33" font-family="Helvetica,sans-Serif" font-size="14.00"> </text>
<text text-anchor="start" x="1855.62" y="-535.33" font-family="Helvetica,sans-Serif" font-size="14.00">serial not null</text>
<text text-anchor="start" x="1847.12" y="-514.08" font-family="Helvetica,sans-Serif" font-size="14.00"> </text>
<text text-anchor="start" x="1855.62" y="-514.08" font-family="Helvetica,sans-Serif" font-size="14.00">auto&#45;incremented</text>
<text text-anchor="start" x="1736.62" y="-492.82" font-family="Helvetica,sans-Serif" font-size="14.00">email</text>
<text text-anchor="start" x="1847.12" y="-492.82" font-family="Helvetica,sans-Serif" font-size="14.00"> </text>
<text text-anchor="start" x="1855.62" y="-492.82" font-family="Helvetica,sans-Serif" font-size="14.00">varchar(255) not null</text>
<text text-anchor="start" x="1736.62" y="-471.57" font-family="Helvetica,sans-Serif" font-size="14.00">username</text>
<text text-anchor="start" x="1847.12" y="-471.57" font-family="Helvetica,sans-Serif" font-size="14.00"> </text>
<text text-anchor="start" x="1855.62" y="-471.57" font-family="Helvetica,sans-Serif" font-size="14.00">varchar(150) not null</text>
<text text-anchor="start" x="1736.62" y="-450.32" font-family="Helvetica,sans-Serif" font-size="14.00">password_hash</text>
<text text-anchor="start" x="1847.12" y="-450.32" font-family="Helvetica,sans-Serif" font-size="14.00"> </text>
<text text-anchor="start" x="1855.62" y="-450.32" font-family="Helvetica,sans-Serif" font-size="14.00">varchar(255) not null</text>
<text text-anchor="start" x="1736.62" y="-429.07" font-family="Helvetica,sans-Serif" font-size="14.00">is_active</text>
<text text-anchor="start" x="1847.12" y="-429.07" font-family="Helvetica,sans-Serif" font-size="14.00"> </text>
<text text-anchor="start" x="1855.62" y="-429.07" font-family="Helvetica,sans-Serif" font-size="14.00">bool not null</text>
<text text-anchor="start" x="1736.62" y="-407.82" font-family="Helvetica,sans-Serif" font-size="14.00">created_at</text>
<text text-anchor="start" x="1847.12" y="-407.82" font-family="Helvetica,sans-Serif" font-size="14.00"> </text>
<text text-anchor="start" x="1855.62" y="-407.82" font-family="Helvetica,sans-Serif" font-size="14.00">timestamp not null</text>
<text text-anchor="start" x="1736.62" y="-386.57" font-family="Helvetica,sans-Serif" font-size="14.00">updated_at</text>
<text text-anchor="start" x="1847.12" y="-386.57" font-family="Helvetica,sans-Serif" font-size="14.00"> </text>
<text text-anchor="start" x="1855.62" y="-386.57" font-family="Helvetica,sans-Serif" font-size="14.00">timestamp not null</text>
<polygon fill="none" stroke="#888888" points="1733.62,-379.62 1733.62,-572.88 2005.62,-572.88 2005.62,-379.62 1733.62,-379.62"/>
</g>
</g>
</svg>
