<?xml version="1.0" encoding="UTF-8" standalone="no"?>
<!DOCTYPE svg PUBLIC "-//W3C//DTD SVG 1.1//EN"
 "http://www.w3.org/Graphics/SVG/1.1/DTD/svg11.dtd">
<!-- Generated by graphviz version 12.2.1 (20241206.2353)
 -->
<!-- Title: SchemaCrawler_Diagram Pages: 1 -->
<svg width="1558pt" height="706pt"
 viewBox="0.00 0.00 1557.50 706.38" xmlns="http://www.w3.org/2000/svg" xmlns:xlink="http://www.w3.org/1999/xlink">
<g id="graph0" class="graph" transform="scale(1 1) rotate(0) translate(4 702.38)">
<title>SchemaCrawler_Diagram</title>
<polygon fill="white" stroke="none" points="-4,4 -4,-702.38 1553.5,-702.38 1553.5,4 -4,4"/>
<text text-anchor="start" x="1274.25" y="-32.2" font-family="Helvetica,sans-Serif" font-size="14.00">generated by</text>
<text text-anchor="start" x="1371.25" y="-32.2" font-family="Helvetica,sans-Serif" font-size="14.00">SchemaCrawler 17.11.4</text>
<text text-anchor="start" x="1274.25" y="-10.95" font-family="Helvetica,sans-Serif" font-size="14.00">generated on</text>
<text text-anchor="start" x="1371.25" y="-10.95" font-family="Helvetica,sans-Serif" font-size="14.00">2026&#45;07&#45;15 01:19:22</text>
<polygon fill="none" stroke="#888888" points="1271.25,-4 1271.25,-48.5 1541.5,-48.5 1541.5,-4 1271.25,-4"/>
<!-- alembic_version_d1a9dfb8 -->
<g id="node1" class="node">
<title>alembic_version_d1a9dfb8</title>
<polygon fill="#e9c2f2" stroke="none" points="1202.88,-78.75 1202.88,-100 1383.88,-100 1383.88,-78.75 1202.88,-78.75"/>
<text text-anchor="start" x="1204.88" y="-85.7" font-family="Helvetica,sans-Serif" font-weight="bold" font-style="italic" font-size="14.00">public.alembic_version</text>
<polygon fill="#e9c2f2" stroke="none" points="1383.88,-78.75 1383.88,-100 1525.88,-100 1525.88,-78.75 1383.88,-78.75"/>
<text text-anchor="start" x="1478.88" y="-84.7" font-family="Helvetica,sans-Serif" font-size="14.00">[table]</text>
<text text-anchor="start" x="1204.88" y="-64.45" font-family="Helvetica,sans-Serif" font-weight="bold" font-style="italic" font-size="14.00">version_num</text>
<text text-anchor="start" x="1342.25" y="-63.45" font-family="Helvetica,sans-Serif" font-size="14.00"> </text>
<text text-anchor="start" x="1385.88" y="-63.45" font-family="Helvetica,sans-Serif" font-size="14.00">varchar(32) not null</text>
<polygon fill="none" stroke="#888888" points="1201.88,-56.5 1201.88,-101 1526.88,-101 1526.88,-56.5 1201.88,-56.5"/>
</g>
<!-- openings_d3ee6531 -->
<g id="node2" class="node">
<title>openings_d3ee6531</title>
<polygon fill="#e9c2f2" stroke="none" points="1244.12,-234.25 1244.12,-255.5 1371.12,-255.5 1371.12,-234.25 1244.12,-234.25"/>
<text text-anchor="start" x="1246.12" y="-241.2" font-family="Helvetica,sans-Serif" font-weight="bold" font-style="italic" font-size="14.00">public.openings</text>
<polygon fill="#e9c2f2" stroke="none" points="1371.12,-234.25 1371.12,-255.5 1484.62,-255.5 1484.62,-234.25 1371.12,-234.25"/>
<text text-anchor="start" x="1437.62" y="-240.2" font-family="Helvetica,sans-Serif" font-size="14.00">[table]</text>
<text text-anchor="start" x="1246.12" y="-219.95" font-family="Helvetica,sans-Serif" font-weight="bold" font-style="italic" font-size="14.00">eco</text>
<text text-anchor="start" x="1343.75" y="-218.95" font-family="Helvetica,sans-Serif" font-size="14.00"> </text>
<text text-anchor="start" x="1373.12" y="-218.95" font-family="Helvetica,sans-Serif" font-size="14.00">varchar not null</text>
<text text-anchor="start" x="1246.12" y="-198.7" font-family="Helvetica,sans-Serif" font-weight="bold" font-style="italic" font-size="14.00">name</text>
<text text-anchor="start" x="1343.75" y="-197.7" font-family="Helvetica,sans-Serif" font-size="14.00"> </text>
<text text-anchor="start" x="1373.12" y="-197.7" font-family="Helvetica,sans-Serif" font-size="14.00">varchar not null</text>
<text text-anchor="start" x="1246.12" y="-176.45" font-family="Helvetica,sans-Serif" font-size="14.00">epd</text>
<text text-anchor="start" x="1343.75" y="-176.45" font-family="Helvetica,sans-Serif" font-size="14.00"> </text>
<text text-anchor="start" x="1373.12" y="-176.45" font-family="Helvetica,sans-Serif" font-size="14.00">text</text>
<text text-anchor="start" x="1246.12" y="-155.2" font-family="Helvetica,sans-Serif" font-size="14.00">pgn</text>
<text text-anchor="start" x="1343.75" y="-155.2" font-family="Helvetica,sans-Serif" font-size="14.00"> </text>
<text text-anchor="start" x="1373.12" y="-155.2" font-family="Helvetica,sans-Serif" font-size="14.00">text</text>
<text text-anchor="start" x="1246.12" y="-133.95" font-family="Helvetica,sans-Serif" font-size="14.00">uci_moves</text>
<text text-anchor="start" x="1343.75" y="-133.95" font-family="Helvetica,sans-Serif" font-size="14.00"> </text>
<text text-anchor="start" x="1373.12" y="-133.95" font-family="Helvetica,sans-Serif" font-size="14.00">text</text>
<polygon fill="none" stroke="#888888" points="1243.12,-127 1243.12,-256.5 1485.62,-256.5 1485.62,-127 1243.12,-127"/>
</g>
<!-- training_items_d80bd731 -->
<g id="node3" class="node">
<title>training_items_d80bd731</title>
<polygon fill="#e9c2f2" stroke="none" points="614.75,-410.88 614.75,-432.12 782.25,-432.12 782.25,-410.88 614.75,-410.88"/>
<text text-anchor="start" x="616.75" y="-417.82" font-family="Helvetica,sans-Serif" font-weight="bold" font-style="italic" font-size="14.00">public.training_items</text>
<polygon fill="#e9c2f2" stroke="none" points="782.25,-410.88 782.25,-432.12 910,-432.12 910,-410.88 782.25,-410.88"/>
<text text-anchor="start" x="863" y="-416.82" font-family="Helvetica,sans-Serif" font-size="14.00">[table]</text>
<text text-anchor="start" x="616.75" y="-396.57" font-family="Helvetica,sans-Serif" font-weight="bold" font-style="italic" font-size="14.00">id</text>
<text text-anchor="start" x="757.88" y="-395.57" font-family="Helvetica,sans-Serif" font-size="14.00"> </text>
<text text-anchor="start" x="784.25" y="-395.57" font-family="Helvetica,sans-Serif" font-size="14.00">serial not null</text>
<text text-anchor="start" x="757.88" y="-374.32" font-family="Helvetica,sans-Serif" font-size="14.00"> </text>
<text text-anchor="start" x="784.25" y="-374.32" font-family="Helvetica,sans-Serif" font-size="14.00">auto&#45;incremented</text>
<text text-anchor="start" x="616.75" y="-353.07" font-family="Helvetica,sans-Serif" font-size="14.00">session_id</text>
<text text-anchor="start" x="757.88" y="-353.07" font-family="Helvetica,sans-Serif" font-size="14.00"> </text>
<text text-anchor="start" x="784.25" y="-353.07" font-family="Helvetica,sans-Serif" font-size="14.00">int4 not null</text>
<text text-anchor="start" x="616.75" y="-331.82" font-family="Helvetica,sans-Serif" font-size="14.00">order_index</text>
<text text-anchor="start" x="757.88" y="-331.82" font-family="Helvetica,sans-Serif" font-size="14.00"> </text>
<text text-anchor="start" x="784.25" y="-331.82" font-family="Helvetica,sans-Serif" font-size="14.00">int4 not null</text>
<text text-anchor="start" x="616.75" y="-310.57" font-family="Helvetica,sans-Serif" font-size="14.00">fen</text>
<text text-anchor="start" x="757.88" y="-310.57" font-family="Helvetica,sans-Serif" font-size="14.00"> </text>
<text text-anchor="start" x="784.25" y="-310.57" font-family="Helvetica,sans-Serif" font-size="14.00">varchar not null</text>
<text text-anchor="start" x="616.75" y="-289.32" font-family="Helvetica,sans-Serif" font-size="14.00">correct_move_uci</text>
<text text-anchor="start" x="757.88" y="-289.32" font-family="Helvetica,sans-Serif" font-size="14.00"> </text>
<text text-anchor="start" x="784.25" y="-289.32" font-family="Helvetica,sans-Serif" font-size="14.00">varchar not null</text>
<polygon fill="none" stroke="#888888" points="613.75,-282.38 613.75,-433.12 911,-433.12 911,-282.38 613.75,-282.38"/>
</g>
<!-- training_sessions_e3215d78 -->
<g id="node5" class="node">
<title>training_sessions_e3215d78</title>
<polygon fill="#e9c2f2" stroke="none" points="9,-368.62 9,-389.88 199.75,-389.88 199.75,-368.62 9,-368.62"/>
<text text-anchor="start" x="11" y="-375.57" font-family="Helvetica,sans-Serif" font-weight="bold" font-style="italic" font-size="14.00">public.training_sessions</text>
<polygon fill="#e9c2f2" stroke="none" points="199.75,-368.62 199.75,-389.88 347.75,-389.88 347.75,-368.62 199.75,-368.62"/>
<text text-anchor="start" x="300.75" y="-374.57" font-family="Helvetica,sans-Serif" font-size="14.00">[table]</text>
<text text-anchor="start" x="11" y="-354.32" font-family="Helvetica,sans-Serif" font-weight="bold" font-style="italic" font-size="14.00">id</text>
<text text-anchor="start" x="140.12" y="-353.32" font-family="Helvetica,sans-Serif" font-size="14.00"> </text>
<text text-anchor="start" x="201.75" y="-353.32" font-family="Helvetica,sans-Serif" font-size="14.00">serial not null</text>
<text text-anchor="start" x="140.12" y="-332.07" font-family="Helvetica,sans-Serif" font-size="14.00"> </text>
<text text-anchor="start" x="201.75" y="-332.07" font-family="Helvetica,sans-Serif" font-size="14.00">auto&#45;incremented</text>
<text text-anchor="start" x="11" y="-310.82" font-family="Helvetica,sans-Serif" font-size="14.00">status</text>
<text text-anchor="start" x="140.12" y="-310.82" font-family="Helvetica,sans-Serif" font-size="14.00"> </text>
<text text-anchor="start" x="201.75" y="-310.82" font-family="Helvetica,sans-Serif" font-size="14.00">varchar not null</text>
<text text-anchor="start" x="11" y="-289.57" font-family="Helvetica,sans-Serif" font-size="14.00">created_at</text>
<text text-anchor="start" x="140.12" y="-289.57" font-family="Helvetica,sans-Serif" font-size="14.00"> </text>
<text text-anchor="start" x="201.75" y="-289.57" font-family="Helvetica,sans-Serif" font-size="14.00">timestamptz not null</text>
<polygon fill="none" stroke="#888888" points="8,-282.62 8,-390.88 348.75,-390.88 348.75,-282.62 8,-282.62"/>
</g>
<!-- training_items_d80bd731&#45;&gt;training_sessions_e3215d78 -->
<g id="edge2" class="edge">
<title>training_items_d80bd731:w&#45;&gt;training_sessions_e3215d78:e</title>
<path fill="none" stroke="black" d="M598.4,-357.75C496.33,-357.77 463.24,-357.99 358.75,-358"/>
<polygon fill="black" stroke="black" points="603.42,-357.75 613.42,-362.25 608.75,-357.75 613.08,-357.75 613.08,-357.75 613.08,-357.75 608.75,-357.75 613.42,-353.25 603.42,-357.75"/>
<polygon fill="black" stroke="black" points="601.2,-352.75 601.2,-362.75 599.2,-362.75 599.2,-352.75 601.2,-352.75"/>
<polyline fill="none" stroke="black" points="602.2,-357.75 597.2,-357.75"/>
<polygon fill="black" stroke="black" points="349.75,-363 349.75,-353 351.75,-353 351.75,-363 349.75,-363"/>
<polyline fill="none" stroke="black" points="348.75,-358 353.75,-358"/>
<polygon fill="black" stroke="black" points="354.75,-363 354.75,-353 356.75,-353 356.75,-363 354.75,-363"/>
<polyline fill="none" stroke="black" points="353.75,-358 358.75,-358"/>
<text text-anchor="start" x="374.75" y="-361.95" font-family="Helvetica,sans-Serif" font-size="14.00">training_items_session_id_fkey</text>
</g>
<!-- training_responses_8ccbbe43 -->
<g id="node4" class="node">
<title>training_responses_8ccbbe43</title>
<polygon fill="#e9c2f2" stroke="none" points="1188.25,-453.12 1188.25,-474.38 1392.5,-474.38 1392.5,-453.12 1188.25,-453.12"/>
<text text-anchor="start" x="1190.25" y="-460.07" font-family="Helvetica,sans-Serif" font-weight="bold" font-style="italic" font-size="14.00">public.training_responses</text>
<polygon fill="#e9c2f2" stroke="none" points="1392.5,-453.12 1392.5,-474.38 1540.5,-474.38 1540.5,-453.12 1392.5,-453.12"/>
<text text-anchor="start" x="1493.5" y="-459.07" font-family="Helvetica,sans-Serif" font-size="14.00">[table]</text>
<text text-anchor="start" x="1190.25" y="-438.82" font-family="Helvetica,sans-Serif" font-weight="bold" font-style="italic" font-size="14.00">id</text>
<text text-anchor="start" x="1361.38" y="-437.82" font-family="Helvetica,sans-Serif" font-size="14.00"> </text>
<text text-anchor="start" x="1394.5" y="-437.82" font-family="Helvetica,sans-Serif" font-size="14.00">serial not null</text>
<text text-anchor="start" x="1361.38" y="-416.57" font-family="Helvetica,sans-Serif" font-size="14.00"> </text>
<text text-anchor="start" x="1394.5" y="-416.57" font-family="Helvetica,sans-Serif" font-size="14.00">auto&#45;incremented</text>
<text text-anchor="start" x="1190.25" y="-395.32" font-family="Helvetica,sans-Serif" font-size="14.00">item_id</text>
<text text-anchor="start" x="1361.38" y="-395.32" font-family="Helvetica,sans-Serif" font-size="14.00"> </text>
<text text-anchor="start" x="1394.5" y="-395.32" font-family="Helvetica,sans-Serif" font-size="14.00">int4 not null</text>
<text text-anchor="start" x="1190.25" y="-374.07" font-family="Helvetica,sans-Serif" font-size="14.00">submitted_move_uci</text>
<text text-anchor="start" x="1361.38" y="-374.07" font-family="Helvetica,sans-Serif" font-size="14.00"> </text>
<text text-anchor="start" x="1394.5" y="-374.07" font-family="Helvetica,sans-Serif" font-size="14.00">varchar not null</text>
<text text-anchor="start" x="1190.25" y="-352.82" font-family="Helvetica,sans-Serif" font-size="14.00">is_correct</text>
<text text-anchor="start" x="1361.38" y="-352.82" font-family="Helvetica,sans-Serif" font-size="14.00"> </text>
<text text-anchor="start" x="1394.5" y="-352.82" font-family="Helvetica,sans-Serif" font-size="14.00">bool not null</text>
<text text-anchor="start" x="1190.25" y="-331.57" font-family="Helvetica,sans-Serif" font-size="14.00">reason</text>
<text text-anchor="start" x="1361.38" y="-331.57" font-family="Helvetica,sans-Serif" font-size="14.00"> </text>
<text text-anchor="start" x="1394.5" y="-331.57" font-family="Helvetica,sans-Serif" font-size="14.00">varchar not null</text>
<text text-anchor="start" x="1190.25" y="-310.32" font-family="Helvetica,sans-Serif" font-size="14.00">fen_after</text>
<text text-anchor="start" x="1361.38" y="-310.32" font-family="Helvetica,sans-Serif" font-size="14.00"> </text>
<text text-anchor="start" x="1394.5" y="-310.32" font-family="Helvetica,sans-Serif" font-size="14.00">varchar</text>
<text text-anchor="start" x="1190.25" y="-289.07" font-family="Helvetica,sans-Serif" font-size="14.00">created_at</text>
<text text-anchor="start" x="1361.38" y="-289.07" font-family="Helvetica,sans-Serif" font-size="14.00"> </text>
<text text-anchor="start" x="1394.5" y="-289.07" font-family="Helvetica,sans-Serif" font-size="14.00">timestamptz not null</text>
<polygon fill="none" stroke="#888888" points="1187.25,-282.12 1187.25,-475.38 1541.5,-475.38 1541.5,-282.12 1187.25,-282.12"/>
</g>
<!-- training_responses_8ccbbe43&#45;&gt;training_items_d80bd731 -->
<g id="edge1" class="edge">
<title>training_responses_8ccbbe43:w&#45;&gt;training_items_d80bd731:e</title>
<path fill="none" stroke="black" d="M1177.38,-400C1065.97,-400.01 1032.32,-400.24 920.94,-400.25"/>
<polygon fill="black" stroke="black" points="1186.25,-395 1186.25,-405 1184.25,-405 1184.25,-395 1186.25,-395"/>
<polyline fill="none" stroke="black" points="1187.25,-400 1182.25,-400"/>
<polygon fill="black" stroke="black" points="1181.25,-395 1181.25,-405 1179.25,-405 1179.25,-395 1181.25,-395"/>
<polyline fill="none" stroke="black" points="1182.25,-400 1177.25,-400"/>
<polygon fill="black" stroke="black" points="912,-405.25 912,-395.25 914,-395.25 914,-405.25 912,-405.25"/>
<polyline fill="none" stroke="black" points="911,-400.25 916,-400.25"/>
<polygon fill="black" stroke="black" points="917,-405.25 917,-395.25 919,-395.25 919,-405.25 917,-405.25"/>
<polyline fill="none" stroke="black" points="916,-400.25 921,-400.25"/>
<text text-anchor="start" x="937" y="-404.2" font-family="Helvetica,sans-Serif" font-size="14.00">training_responses_item_id_fkey</text>
</g>
<!-- users_f89f9d1e -->
<g id="node6" class="node">
<title>users_f89f9d1e</title>
<polygon fill="#e9c2f2" stroke="none" points="1229.38,-672.12 1229.38,-693.38 1348.38,-693.38 1348.38,-672.12 1229.38,-672.12"/>
<text text-anchor="start" x="1231.38" y="-679.08" font-family="Helvetica,sans-Serif" font-weight="bold" font-style="italic" font-size="14.00">public.users</text>
<polygon fill="#e9c2f2" stroke="none" points="1348.38,-672.12 1348.38,-693.38 1499.38,-693.38 1499.38,-672.12 1348.38,-672.12"/>
<text text-anchor="start" x="1452.38" y="-678.08" font-family="Helvetica,sans-Serif" font-size="14.00">[table]</text>
<text text-anchor="start" x="1231.38" y="-657.83" font-family="Helvetica,sans-Serif" font-weight="bold" font-style="italic" font-size="14.00">id</text>
<text text-anchor="start" x="1341.88" y="-656.83" font-family="Helvetica,sans-Serif" font-size="14.00"> </text>
<text text-anchor="start" x="1350.38" y="-656.83" font-family="Helvetica,sans-Serif" font-size="14.00">serial not null</text>
<text text-anchor="start" x="1341.88" y="-635.58" font-family="Helvetica,sans-Serif" font-size="14.00"> </text>
<text text-anchor="start" x="1350.38" y="-635.58" font-family="Helvetica,sans-Serif" font-size="14.00">auto&#45;incremented</text>
<text text-anchor="start" x="1231.38" y="-614.33" font-family="Helvetica,sans-Serif" font-size="14.00">email</text>
<text text-anchor="start" x="1341.88" y="-614.33" font-family="Helvetica,sans-Serif" font-size="14.00"> </text>
<text text-anchor="start" x="1350.38" y="-614.33" font-family="Helvetica,sans-Serif" font-size="14.00">varchar(255) not null</text>
<text text-anchor="start" x="1231.38" y="-593.08" font-family="Helvetica,sans-Serif" font-size="14.00">username</text>
<text text-anchor="start" x="1341.88" y="-593.08" font-family="Helvetica,sans-Serif" font-size="14.00"> </text>
<text text-anchor="start" x="1350.38" y="-593.08" font-family="Helvetica,sans-Serif" font-size="14.00">varchar(150) not null</text>
<text text-anchor="start" x="1231.38" y="-571.83" font-family="Helvetica,sans-Serif" font-size="14.00">password_hash</text>
<text text-anchor="start" x="1341.88" y="-571.83" font-family="Helvetica,sans-Serif" font-size="14.00"> </text>
<text text-anchor="start" x="1350.38" y="-571.83" font-family="Helvetica,sans-Serif" font-size="14.00">varchar(255) not null</text>
<text text-anchor="start" x="1231.38" y="-550.58" font-family="Helvetica,sans-Serif" font-size="14.00">is_active</text>
<text text-anchor="start" x="1341.88" y="-550.58" font-family="Helvetica,sans-Serif" font-size="14.00"> </text>
<text text-anchor="start" x="1350.38" y="-550.58" font-family="Helvetica,sans-Serif" font-size="14.00">bool not null</text>
<text text-anchor="start" x="1231.38" y="-529.33" font-family="Helvetica,sans-Serif" font-size="14.00">created_at</text>
<text text-anchor="start" x="1341.88" y="-529.33" font-family="Helvetica,sans-Serif" font-size="14.00"> </text>
<text text-anchor="start" x="1350.38" y="-529.33" font-family="Helvetica,sans-Serif" font-size="14.00">timestamp not null</text>
<text text-anchor="start" x="1231.38" y="-508.07" font-family="Helvetica,sans-Serif" font-size="14.00">updated_at</text>
<text text-anchor="start" x="1341.88" y="-508.07" font-family="Helvetica,sans-Serif" font-size="14.00"> </text>
<text text-anchor="start" x="1350.38" y="-508.07" font-family="Helvetica,sans-Serif" font-size="14.00">timestamp not null</text>
<polygon fill="none" stroke="#888888" points="1228.38,-501.12 1228.38,-694.38 1500.38,-694.38 1500.38,-501.12 1228.38,-501.12"/>
</g>
</g>
</svg>
