<?xml version="1.0" encoding="UTF-8" standalone="no"?>
<!DOCTYPE svg PUBLIC "-//W3C//DTD SVG 1.1//EN"
 "http://www.w3.org/Graphics/SVG/1.1/DTD/svg11.dtd">
<!-- Generated by graphviz version 12.2.1 (20241206.2353)
 -->
<!-- Title: SchemaCrawler_Diagram Pages: 1 -->
<svg width="1558pt" height="551pt"
 viewBox="0.00 0.00 1557.50 551.38" xmlns="http://www.w3.org/2000/svg" xmlns:xlink="http://www.w3.org/1999/xlink">
<g id="graph0" class="graph" transform="scale(1 1) rotate(0) translate(4 547.38)">
<title>SchemaCrawler_Diagram</title>
<polygon fill="white" stroke="none" points="-4,4 -4,-547.38 1553.5,-547.38 1553.5,4 -4,4"/>
<text text-anchor="start" x="1274.25" y="-32.2" font-family="Helvetica,sans-Serif" font-size="14.00">generated by</text>
<text text-anchor="start" x="1371.25" y="-32.2" font-family="Helvetica,sans-Serif" font-size="14.00">SchemaCrawler 17.11.4</text>
<text text-anchor="start" x="1274.25" y="-10.95" font-family="Helvetica,sans-Serif" font-size="14.00">generated on</text>
<text text-anchor="start" x="1371.25" y="-10.95" font-family="Helvetica,sans-Serif" font-size="14.00">2026&#45;07&#45;12 00:14:14</text>
<polygon fill="none" stroke="#888888" points="1271.25,-4 1271.25,-48.5 1541.5,-48.5 1541.5,-4 1271.25,-4"/>
<!-- alembic_version_d1a9dfb8 -->
<g id="node1" class="node">
<title>alembic_version_d1a9dfb8</title>
<polygon fill="#e9c2f2" stroke="none" points="1202.88,-78.75 1202.88,-100 1383.88,-100 1383.88,-78.75 1202.88,-78.75"/>
<text text-anchor="start" x="1204.88" y="-85.7" font-family="Helvetica,sans-Serif" font-weight="bold" font-style="italic" font-size="14.00">public.alembic_version</text>
<polygon fill="#e9c2f2" stroke="none" points="1383.88,-78.75 1383.88,-100 1525.88,-100 1525.88,-78.75 1383.88,-78.75"/>
<text text-anchor="start" x="1478.88" y="-84.7" font-family="Helvetica,sans-Serif" font-size="14.00">[table]</text>
<text text-anchor="start" x="1204.88" y="-64.45" font-family="Helvetica,sans-Serif" font-weight="bold" font-style="italic" font-size="14.00">version_num</text>
<text text-anchor="start" x="1342.25" y="-63.45" font-family="Helvetica,sans-Serif" font-size="14.00"> </text>
<text text-anchor="start" x="1385.88" y="-63.45" font-family="Helvetica,sans-Serif" font-size="14.00">varchar(32) not null</text>
<polygon fill="none" stroke="#888888" points="1201.88,-56.5 1201.88,-101 1526.88,-101 1526.88,-56.5 1201.88,-56.5"/>
</g>
<!-- training_items_d80bd731 -->
<g id="node2" class="node">
<title>training_items_d80bd731</title>
<polygon fill="#e9c2f2" stroke="none" points="614.75,-255.88 614.75,-277.12 782.25,-277.12 782.25,-255.88 614.75,-255.88"/>
<text text-anchor="start" x="616.75" y="-262.82" font-family="Helvetica,sans-Serif" font-weight="bold" font-style="italic" font-size="14.00">public.training_items</text>
<polygon fill="#e9c2f2" stroke="none" points="782.25,-255.88 782.25,-277.12 910,-277.12 910,-255.88 782.25,-255.88"/>
<text text-anchor="start" x="863" y="-261.82" font-family="Helvetica,sans-Serif" font-size="14.00">[table]</text>
<text text-anchor="start" x="616.75" y="-241.57" font-family="Helvetica,sans-Serif" font-weight="bold" font-style="italic" font-size="14.00">id</text>
<text text-anchor="start" x="757.88" y="-240.57" font-family="Helvetica,sans-Serif" font-size="14.00"> </text>
<text text-anchor="start" x="784.25" y="-240.57" font-family="Helvetica,sans-Serif" font-size="14.00">serial not null</text>
<text text-anchor="start" x="757.88" y="-219.32" font-family="Helvetica,sans-Serif" font-size="14.00"> </text>
<text text-anchor="start" x="784.25" y="-219.32" font-family="Helvetica,sans-Serif" font-size="14.00">auto&#45;incremented</text>
<text text-anchor="start" x="616.75" y="-198.07" font-family="Helvetica,sans-Serif" font-size="14.00">session_id</text>
<text text-anchor="start" x="757.88" y="-198.07" font-family="Helvetica,sans-Serif" font-size="14.00"> </text>
<text text-anchor="start" x="784.25" y="-198.07" font-family="Helvetica,sans-Serif" font-size="14.00">int4 not null</text>
<text text-anchor="start" x="616.75" y="-176.82" font-family="Helvetica,sans-Serif" font-size="14.00">order_index</text>
<text text-anchor="start" x="757.88" y="-176.82" font-family="Helvetica,sans-Serif" font-size="14.00"> </text>
<text text-anchor="start" x="784.25" y="-176.82" font-family="Helvetica,sans-Serif" font-size="14.00">int4 not null</text>
<text text-anchor="start" x="616.75" y="-155.57" font-family="Helvetica,sans-Serif" font-size="14.00">fen</text>
<text text-anchor="start" x="757.88" y="-155.57" font-family="Helvetica,sans-Serif" font-size="14.00"> </text>
<text text-anchor="start" x="784.25" y="-155.57" font-family="Helvetica,sans-Serif" font-size="14.00">varchar not null</text>
<text text-anchor="start" x="616.75" y="-134.32" font-family="Helvetica,sans-Serif" font-size="14.00">correct_move_uci</text>
<text text-anchor="start" x="757.88" y="-134.32" font-family="Helvetica,sans-Serif" font-size="14.00"> </text>
<text text-anchor="start" x="784.25" y="-134.32" font-family="Helvetica,sans-Serif" font-size="14.00">varchar not null</text>
<polygon fill="none" stroke="#888888" points="613.75,-127.38 613.75,-278.12 911,-278.12 911,-127.38 613.75,-127.38"/>
</g>
<!-- training_sessions_e3215d78 -->
<g id="node4" class="node">
<title>training_sessions_e3215d78</title>
<polygon fill="#e9c2f2" stroke="none" points="9,-213.62 9,-234.88 199.75,-234.88 199.75,-213.62 9,-213.62"/>
<text text-anchor="start" x="11" y="-220.57" font-family="Helvetica,sans-Serif" font-weight="bold" font-style="italic" font-size="14.00">public.training_sessions</text>
<polygon fill="#e9c2f2" stroke="none" points="199.75,-213.62 199.75,-234.88 347.75,-234.88 347.75,-213.62 199.75,-213.62"/>
<text text-anchor="start" x="300.75" y="-219.57" font-family="Helvetica,sans-Serif" font-size="14.00">[table]</text>
<text text-anchor="start" x="11" y="-199.32" font-family="Helvetica,sans-Serif" font-weight="bold" font-style="italic" font-size="14.00">id</text>
<text text-anchor="start" x="140.12" y="-198.32" font-family="Helvetica,sans-Serif" font-size="14.00"> </text>
<text text-anchor="start" x="201.75" y="-198.32" font-family="Helvetica,sans-Serif" font-size="14.00">serial not null</text>
<text text-anchor="start" x="140.12" y="-177.07" font-family="Helvetica,sans-Serif" font-size="14.00"> </text>
<text text-anchor="start" x="201.75" y="-177.07" font-family="Helvetica,sans-Serif" font-size="14.00">auto&#45;incremented</text>
<text text-anchor="start" x="11" y="-155.82" font-family="Helvetica,sans-Serif" font-size="14.00">status</text>
<text text-anchor="start" x="140.12" y="-155.82" font-family="Helvetica,sans-Serif" font-size="14.00"> </text>
<text text-anchor="start" x="201.75" y="-155.82" font-family="Helvetica,sans-Serif" font-size="14.00">varchar not null</text>
<text text-anchor="start" x="11" y="-134.57" font-family="Helvetica,sans-Serif" font-size="14.00">created_at</text>
<text text-anchor="start" x="140.12" y="-134.57" font-family="Helvetica,sans-Serif" font-size="14.00"> </text>
<text text-anchor="start" x="201.75" y="-134.57" font-family="Helvetica,sans-Serif" font-size="14.00">timestamptz not null</text>
<polygon fill="none" stroke="#888888" points="8,-127.62 8,-235.88 348.75,-235.88 348.75,-127.62 8,-127.62"/>
</g>
<!-- training_items_d80bd731&#45;&gt;training_sessions_e3215d78 -->
<g id="edge2" class="edge">
<title>training_items_d80bd731:w&#45;&gt;training_sessions_e3215d78:e</title>
<path fill="none" stroke="black" d="M598.4,-202.75C496.33,-202.77 463.24,-202.99 358.75,-203"/>
<polygon fill="black" stroke="black" points="603.42,-202.75 613.42,-207.25 608.75,-202.75 613.08,-202.75 613.08,-202.75 613.08,-202.75 608.75,-202.75 613.42,-198.25 603.42,-202.75"/>
<polygon fill="black" stroke="black" points="601.2,-197.75 601.2,-207.75 599.2,-207.75 599.2,-197.75 601.2,-197.75"/>
<polyline fill="none" stroke="black" points="602.2,-202.75 597.2,-202.75"/>
<polygon fill="black" stroke="black" points="349.75,-208 349.75,-198 351.75,-198 351.75,-208 349.75,-208"/>
<polyline fill="none" stroke="black" points="348.75,-203 353.75,-203"/>
<polygon fill="black" stroke="black" points="354.75,-208 354.75,-198 356.75,-198 356.75,-208 354.75,-208"/>
<polyline fill="none" stroke="black" points="353.75,-203 358.75,-203"/>
<text text-anchor="start" x="374.75" y="-206.95" font-family="Helvetica,sans-Serif" font-size="14.00">training_items_session_id_fkey</text>
</g>
<!-- training_responses_8ccbbe43 -->
<g id="node3" class="node">
<title>training_responses_8ccbbe43</title>
<polygon fill="#e9c2f2" stroke="none" points="1188.25,-298.12 1188.25,-319.38 1392.5,-319.38 1392.5,-298.12 1188.25,-298.12"/>
<text text-anchor="start" x="1190.25" y="-305.07" font-family="Helvetica,sans-Serif" font-weight="bold" font-style="italic" font-size="14.00">public.training_responses</text>
<polygon fill="#e9c2f2" stroke="none" points="1392.5,-298.12 1392.5,-319.38 1540.5,-319.38 1540.5,-298.12 1392.5,-298.12"/>
<text text-anchor="start" x="1493.5" y="-304.07" font-family="Helvetica,sans-Serif" font-size="14.00">[table]</text>
<text text-anchor="start" x="1190.25" y="-283.82" font-family="Helvetica,sans-Serif" font-weight="bold" font-style="italic" font-size="14.00">id</text>
<text text-anchor="start" x="1361.38" y="-282.82" font-family="Helvetica,sans-Serif" font-size="14.00"> </text>
<text text-anchor="start" x="1394.5" y="-282.82" font-family="Helvetica,sans-Serif" font-size="14.00">serial not null</text>
<text text-anchor="start" x="1361.38" y="-261.57" font-family="Helvetica,sans-Serif" font-size="14.00"> </text>
<text text-anchor="start" x="1394.5" y="-261.57" font-family="Helvetica,sans-Serif" font-size="14.00">auto&#45;incremented</text>
<text text-anchor="start" x="1190.25" y="-240.32" font-family="Helvetica,sans-Serif" font-size="14.00">item_id</text>
<text text-anchor="start" x="1361.38" y="-240.32" font-family="Helvetica,sans-Serif" font-size="14.00"> </text>
<text text-anchor="start" x="1394.5" y="-240.32" font-family="Helvetica,sans-Serif" font-size="14.00">int4 not null</text>
<text text-anchor="start" x="1190.25" y="-219.07" font-family="Helvetica,sans-Serif" font-size="14.00">submitted_move_uci</text>
<text text-anchor="start" x="1361.38" y="-219.07" font-family="Helvetica,sans-Serif" font-size="14.00"> </text>
<text text-anchor="start" x="1394.5" y="-219.07" font-family="Helvetica,sans-Serif" font-size="14.00">varchar not null</text>
<text text-anchor="start" x="1190.25" y="-197.82" font-family="Helvetica,sans-Serif" font-size="14.00">is_correct</text>
<text text-anchor="start" x="1361.38" y="-197.82" font-family="Helvetica,sans-Serif" font-size="14.00"> </text>
<text text-anchor="start" x="1394.5" y="-197.82" font-family="Helvetica,sans-Serif" font-size="14.00">bool not null</text>
<text text-anchor="start" x="1190.25" y="-176.57" font-family="Helvetica,sans-Serif" font-size="14.00">reason</text>
<text text-anchor="start" x="1361.38" y="-176.57" font-family="Helvetica,sans-Serif" font-size="14.00"> </text>
<text text-anchor="start" x="1394.5" y="-176.57" font-family="Helvetica,sans-Serif" font-size="14.00">varchar not null</text>
<text text-anchor="start" x="1190.25" y="-155.32" font-family="Helvetica,sans-Serif" font-size="14.00">fen_after</text>
<text text-anchor="start" x="1361.38" y="-155.32" font-family="Helvetica,sans-Serif" font-size="14.00"> </text>
<text text-anchor="start" x="1394.5" y="-155.32" font-family="Helvetica,sans-Serif" font-size="14.00">varchar</text>
<text text-anchor="start" x="1190.25" y="-134.07" font-family="Helvetica,sans-Serif" font-size="14.00">created_at</text>
<text text-anchor="start" x="1361.38" y="-134.07" font-family="Helvetica,sans-Serif" font-size="14.00"> </text>
<text text-anchor="start" x="1394.5" y="-134.07" font-family="Helvetica,sans-Serif" font-size="14.00">timestamptz not null</text>
<polygon fill="none" stroke="#888888" points="1187.25,-127.12 1187.25,-320.38 1541.5,-320.38 1541.5,-127.12 1187.25,-127.12"/>
</g>
<!-- training_responses_8ccbbe43&#45;&gt;training_items_d80bd731 -->
<g id="edge1" class="edge">
<title>training_responses_8ccbbe43:w&#45;&gt;training_items_d80bd731:e</title>
<path fill="none" stroke="black" d="M1177.38,-245C1065.97,-245.01 1032.32,-245.24 920.94,-245.25"/>
<polygon fill="black" stroke="black" points="1186.25,-240 1186.25,-250 1184.25,-250 1184.25,-240 1186.25,-240"/>
<polyline fill="none" stroke="black" points="1187.25,-245 1182.25,-245"/>
<polygon fill="black" stroke="black" points="1181.25,-240 1181.25,-250 1179.25,-250 1179.25,-240 1181.25,-240"/>
<polyline fill="none" stroke="black" points="1182.25,-245 1177.25,-245"/>
<polygon fill="black" stroke="black" points="912,-250.25 912,-240.25 914,-240.25 914,-250.25 912,-250.25"/>
<polyline fill="none" stroke="black" points="911,-245.25 916,-245.25"/>
<polygon fill="black" stroke="black" points="917,-250.25 917,-240.25 919,-240.25 919,-250.25 917,-250.25"/>
<polyline fill="none" stroke="black" points="916,-245.25 921,-245.25"/>
<text text-anchor="start" x="937" y="-249.2" font-family="Helvetica,sans-Serif" font-size="14.00">training_responses_item_id_fkey</text>
</g>
<!-- users_f89f9d1e -->
<g id="node5" class="node">
<title>users_f89f9d1e</title>
<polygon fill="#e9c2f2" stroke="none" points="1229.38,-517.12 1229.38,-538.38 1348.38,-538.38 1348.38,-517.12 1229.38,-517.12"/>
<text text-anchor="start" x="1231.38" y="-524.08" font-family="Helvetica,sans-Serif" font-weight="bold" font-style="italic" font-size="14.00">public.users</text>
<polygon fill="#e9c2f2" stroke="none" points="1348.38,-517.12 1348.38,-538.38 1499.38,-538.38 1499.38,-517.12 1348.38,-517.12"/>
<text text-anchor="start" x="1452.38" y="-523.08" font-family="Helvetica,sans-Serif" font-size="14.00">[table]</text>
<text text-anchor="start" x="1231.38" y="-502.82" font-family="Helvetica,sans-Serif" font-weight="bold" font-style="italic" font-size="14.00">id</text>
<text text-anchor="start" x="1341.88" y="-501.82" font-family="Helvetica,sans-Serif" font-size="14.00"> </text>
<text text-anchor="start" x="1350.38" y="-501.82" font-family="Helvetica,sans-Serif" font-size="14.00">serial not null</text>
<text text-anchor="start" x="1341.88" y="-480.57" font-family="Helvetica,sans-Serif" font-size="14.00"> </text>
<text text-anchor="start" x="1350.38" y="-480.57" font-family="Helvetica,sans-Serif" font-size="14.00">auto&#45;incremented</text>
<text text-anchor="start" x="1231.38" y="-459.32" font-family="Helvetica,sans-Serif" font-size="14.00">email</text>
<text text-anchor="start" x="1341.88" y="-459.32" font-family="Helvetica,sans-Serif" font-size="14.00"> </text>
<text text-anchor="start" x="1350.38" y="-459.32" font-family="Helvetica,sans-Serif" font-size="14.00">varchar(255) not null</text>
<text text-anchor="start" x="1231.38" y="-438.07" font-family="Helvetica,sans-Serif" font-size="14.00">username</text>
<text text-anchor="start" x="1341.88" y="-438.07" font-family="Helvetica,sans-Serif" font-size="14.00"> </text>
<text text-anchor="start" x="1350.38" y="-438.07" font-family="Helvetica,sans-Serif" font-size="14.00">varchar(150) not null</text>
<text text-anchor="start" x="1231.38" y="-416.82" font-family="Helvetica,sans-Serif" font-size="14.00">password_hash</text>
<text text-anchor="start" x="1341.88" y="-416.82" font-family="Helvetica,sans-Serif" font-size="14.00"> </text>
<text text-anchor="start" x="1350.38" y="-416.82" font-family="Helvetica,sans-Serif" font-size="14.00">varchar(255) not null</text>
<text text-anchor="start" x="1231.38" y="-395.57" font-family="Helvetica,sans-Serif" font-size="14.00">is_active</text>
<text text-anchor="start" x="1341.88" y="-395.57" font-family="Helvetica,sans-Serif" font-size="14.00"> </text>
<text text-anchor="start" x="1350.38" y="-395.57" font-family="Helvetica,sans-Serif" font-size="14.00">bool not null</text>
<text text-anchor="start" x="1231.38" y="-374.32" font-family="Helvetica,sans-Serif" font-size="14.00">created_at</text>
<text text-anchor="start" x="1341.88" y="-374.32" font-family="Helvetica,sans-Serif" font-size="14.00"> </text>
<text text-anchor="start" x="1350.38" y="-374.32" font-family="Helvetica,sans-Serif" font-size="14.00">timestamp not null</text>
<text text-anchor="start" x="1231.38" y="-353.07" font-family="Helvetica,sans-Serif" font-size="14.00">updated_at</text>
<text text-anchor="start" x="1341.88" y="-353.07" font-family="Helvetica,sans-Serif" font-size="14.00"> </text>
<text text-anchor="start" x="1350.38" y="-353.07" font-family="Helvetica,sans-Serif" font-size="14.00">timestamp not null</text>
<polygon fill="none" stroke="#888888" points="1228.38,-346.12 1228.38,-539.38 1500.38,-539.38 1500.38,-346.12 1228.38,-346.12"/>
</g>
</g>
</svg>
