<?xml version="1.0" encoding="UTF-8" standalone="no"?>
<!DOCTYPE svg PUBLIC "-//W3C//DTD SVG 1.1//EN"
 "http://www.w3.org/Graphics/SVG/1.1/DTD/svg11.dtd">
<!-- Generated by graphviz version 12.2.1 (20241206.2353)
 -->
<!-- Title: SchemaCrawler_Diagram Pages: 1 -->
<svg width="2095pt" height="567pt"
 viewBox="0.00 0.00 2094.50 566.75" xmlns="http://www.w3.org/2000/svg" xmlns:xlink="http://www.w3.org/1999/xlink">
<g id="graph0" class="graph" transform="scale(1 1) rotate(0) translate(4 562.75)">
<title>SchemaCrawler_Diagram</title>
<polygon fill="white" stroke="none" points="-4,4 -4,-562.75 2090.5,-562.75 2090.5,4 -4,4"/>
<text text-anchor="start" x="1811.25" y="-32.2" font-family="Helvetica,sans-Serif" font-size="14.00">generated by</text>
<text text-anchor="start" x="1908.25" y="-32.2" font-family="Helvetica,sans-Serif" font-size="14.00">SchemaCrawler 17.11.4</text>
<text text-anchor="start" x="1811.25" y="-10.95" font-family="Helvetica,sans-Serif" font-size="14.00">generated on</text>
<text text-anchor="start" x="1908.25" y="-10.95" font-family="Helvetica,sans-Serif" font-size="14.00">2026&#45;07&#45;16 20:52:36</text>
<polygon fill="none" stroke="#888888" points="1808.25,-4 1808.25,-48.5 2078.5,-48.5 2078.5,-4 1808.25,-4"/>
<!-- alembic_version_d1a9dfb8 -->
<g id="node1" class="node">
<title>alembic_version_d1a9dfb8</title>
<polygon fill="#e9c2f2" stroke="none" points="1739.88,-313.12 1739.88,-334.38 1920.88,-334.38 1920.88,-313.12 1739.88,-313.12"/>
<text text-anchor="start" x="1741.88" y="-320.07" font-family="Helvetica,sans-Serif" font-weight="bold" font-style="italic" font-size="14.00">public.alembic_version</text>
<polygon fill="#e9c2f2" stroke="none" points="1920.88,-313.12 1920.88,-334.38 2062.88,-334.38 2062.88,-313.12 1920.88,-313.12"/>
<text text-anchor="start" x="2015.88" y="-319.07" font-family="Helvetica,sans-Serif" font-size="14.00">[table]</text>
<text text-anchor="start" x="1741.88" y="-298.82" font-family="Helvetica,sans-Serif" font-weight="bold" font-style="italic" font-size="14.00">version_num</text>
<text text-anchor="start" x="1879.25" y="-297.82" font-family="Helvetica,sans-Serif" font-size="14.00"> </text>
<text text-anchor="start" x="1922.88" y="-297.82" font-family="Helvetica,sans-Serif" font-size="14.00">varchar(32) not null</text>
<polygon fill="none" stroke="#888888" points="1738.88,-290.88 1738.88,-335.38 2063.88,-335.38 2063.88,-290.88 1738.88,-290.88"/>
</g>
<!-- openings_d3ee6531 -->
<g id="node2" class="node">
<title>openings_d3ee6531</title>
<polygon fill="#e9c2f2" stroke="none" points="23.75,-382.62 23.75,-403.88 150.75,-403.88 150.75,-382.62 23.75,-382.62"/>
<text text-anchor="start" x="25.75" y="-389.57" font-family="Helvetica,sans-Serif" font-weight="bold" font-style="italic" font-size="14.00">public.openings</text>
<polygon fill="#e9c2f2" stroke="none" points="150.75,-382.62 150.75,-403.88 264.25,-403.88 264.25,-382.62 150.75,-382.62"/>
<text text-anchor="start" x="217.25" y="-388.57" font-family="Helvetica,sans-Serif" font-size="14.00">[table]</text>
<text text-anchor="start" x="25.75" y="-368.32" font-family="Helvetica,sans-Serif" font-weight="bold" font-style="italic" font-size="14.00">eco</text>
<text text-anchor="start" x="123.38" y="-367.32" font-family="Helvetica,sans-Serif" font-size="14.00"> </text>
<text text-anchor="start" x="152.75" y="-367.32" font-family="Helvetica,sans-Serif" font-size="14.00">varchar not null</text>
<text text-anchor="start" x="25.75" y="-347.07" font-family="Helvetica,sans-Serif" font-weight="bold" font-style="italic" font-size="14.00">name</text>
<text text-anchor="start" x="123.38" y="-346.07" font-family="Helvetica,sans-Serif" font-size="14.00"> </text>
<text text-anchor="start" x="152.75" y="-346.07" font-family="Helvetica,sans-Serif" font-size="14.00">varchar not null</text>
<text text-anchor="start" x="25.75" y="-324.82" font-family="Helvetica,sans-Serif" font-size="14.00">epd</text>
<text text-anchor="start" x="123.38" y="-324.82" font-family="Helvetica,sans-Serif" font-size="14.00"> </text>
<text text-anchor="start" x="152.75" y="-324.82" font-family="Helvetica,sans-Serif" font-size="14.00">text</text>
<text text-anchor="start" x="25.75" y="-303.57" font-family="Helvetica,sans-Serif" font-size="14.00">pgn</text>
<text text-anchor="start" x="123.38" y="-303.57" font-family="Helvetica,sans-Serif" font-size="14.00"> </text>
<text text-anchor="start" x="152.75" y="-303.57" font-family="Helvetica,sans-Serif" font-size="14.00">text</text>
<text text-anchor="start" x="25.75" y="-282.32" font-family="Helvetica,sans-Serif" font-size="14.00">uci_moves</text>
<text text-anchor="start" x="123.38" y="-282.32" font-family="Helvetica,sans-Serif" font-size="14.00"> </text>
<text text-anchor="start" x="152.75" y="-282.32" font-family="Helvetica,sans-Serif" font-size="14.00">text</text>
<polygon fill="none" stroke="#888888" points="22.75,-275.38 22.75,-404.88 265.25,-404.88 265.25,-275.38 22.75,-275.38"/>
</g>
<!-- training_sessions_e3215d78 -->
<g id="node3" class="node">
<title>training_sessions_e3215d78</title>
<polygon fill="#e9c2f2" stroke="none" points="546,-447.88 546,-469.12 736.75,-469.12 736.75,-447.88 546,-447.88"/>
<text text-anchor="start" x="548" y="-454.82" font-family="Helvetica,sans-Serif" font-weight="bold" font-style="italic" font-size="14.00">public.training_sessions</text>
<polygon fill="#e9c2f2" stroke="none" points="736.75,-447.88 736.75,-469.12 884.75,-469.12 884.75,-447.88 736.75,-447.88"/>
<text text-anchor="start" x="837.75" y="-453.82" font-family="Helvetica,sans-Serif" font-size="14.00">[table]</text>
<text text-anchor="start" x="548" y="-433.57" font-family="Helvetica,sans-Serif" font-weight="bold" font-style="italic" font-size="14.00">id</text>
<text text-anchor="start" x="692.12" y="-432.57" font-family="Helvetica,sans-Serif" font-size="14.00"> </text>
<text text-anchor="start" x="738.75" y="-432.57" font-family="Helvetica,sans-Serif" font-size="14.00">serial not null</text>
<text text-anchor="start" x="692.12" y="-411.32" font-family="Helvetica,sans-Serif" font-size="14.00"> </text>
<text text-anchor="start" x="738.75" y="-411.32" font-family="Helvetica,sans-Serif" font-size="14.00">auto&#45;incremented</text>
<text text-anchor="start" x="548" y="-390.07" font-family="Helvetica,sans-Serif" font-size="14.00">status</text>
<text text-anchor="start" x="692.12" y="-390.07" font-family="Helvetica,sans-Serif" font-size="14.00"> </text>
<text text-anchor="start" x="738.75" y="-390.07" font-family="Helvetica,sans-Serif" font-size="14.00">varchar not null</text>
<text text-anchor="start" x="548" y="-368.82" font-family="Helvetica,sans-Serif" font-size="14.00">created_at</text>
<text text-anchor="start" x="692.12" y="-368.82" font-family="Helvetica,sans-Serif" font-size="14.00"> </text>
<text text-anchor="start" x="738.75" y="-368.82" font-family="Helvetica,sans-Serif" font-size="14.00">timestamptz not null</text>
<text text-anchor="start" x="548" y="-347.57" font-family="Helvetica,sans-Serif" font-size="14.00">opening_eco</text>
<text text-anchor="start" x="692.12" y="-347.57" font-family="Helvetica,sans-Serif" font-size="14.00"> </text>
<text text-anchor="start" x="738.75" y="-347.57" font-family="Helvetica,sans-Serif" font-size="14.00">varchar</text>
<text text-anchor="start" x="548" y="-326.32" font-family="Helvetica,sans-Serif" font-size="14.00">opening_name</text>
<text text-anchor="start" x="692.12" y="-326.32" font-family="Helvetica,sans-Serif" font-size="14.00"> </text>
<text text-anchor="start" x="738.75" y="-326.32" font-family="Helvetica,sans-Serif" font-size="14.00">varchar</text>
<text text-anchor="start" x="548" y="-305.07" font-family="Helvetica,sans-Serif" font-size="14.00">user_id</text>
<text text-anchor="start" x="692.12" y="-305.07" font-family="Helvetica,sans-Serif" font-size="14.00"> </text>
<text text-anchor="start" x="738.75" y="-305.07" font-family="Helvetica,sans-Serif" font-size="14.00">int4 not null</text>
<polygon fill="none" stroke="#888888" points="545,-298.12 545,-470.12 885.75,-470.12 885.75,-298.12 545,-298.12"/>
</g>
<!-- training_sessions_e3215d78&#45;&gt;openings_d3ee6531 -->
<g id="edge1" class="edge">
<title>training_sessions_e3215d78:w&#45;&gt;openings_d3ee6531:e</title>
<path fill="none" stroke="black" d="M525.7,-352.41C419.9,-354.26 385.16,-371.01 275.07,-371.96"/>
<polygon fill="black" stroke="black" points="534.67,-352.34 544.7,-356.75 540,-352.29 544.33,-352.26 544.33,-352.26 544.33,-352.26 540,-352.29 544.63,-347.75 534.67,-352.34"/>
<ellipse fill="none" stroke="black" cx="528.95" cy="-352.39" rx="4" ry="4"/>
<polygon fill="black" stroke="black" points="266.27,-377 266.23,-367 268.23,-366.99 268.27,-376.99 266.27,-377"/>
<polyline fill="none" stroke="black" points="265.25,-372 270.25,-371.98"/>
<polygon fill="black" stroke="black" points="271.27,-376.97 271.23,-366.97 273.23,-366.97 273.27,-376.97 271.27,-376.97"/>
<polyline fill="none" stroke="black" points="270.25,-371.98 275.25,-371.96"/>
<text text-anchor="start" x="307.12" y="-375.17" font-family="Helvetica,sans-Serif" font-size="14.00">fk_training_sessions_openings</text>
</g>
<!-- training_sessions_e3215d78&#45;&gt;openings_d3ee6531 -->
<g id="edge2" class="edge">
<title>training_sessions_e3215d78:w&#45;&gt;openings_d3ee6531:e</title>
<path fill="none" stroke="black" d="M525.66,-330.73C434.76,-328.14 402.93,-308.5 306,-330.88 290.05,-334.56 286.42,-345.38 274.81,-349.3"/>
<polygon fill="black" stroke="black" points="534.67,-330.85 544.6,-335.49 540,-330.93 544.33,-330.99 544.33,-330.99 544.33,-330.99 540,-330.93 544.73,-326.5 534.67,-330.85"/>
<ellipse fill="none" stroke="black" cx="528.95" cy="-330.77" rx="4" ry="4"/>
<polygon fill="black" stroke="black" points="266.99,-355.54 265.49,-345.66 267.47,-345.36 268.96,-355.25 266.99,-355.54"/>
<polyline fill="none" stroke="black" points="265.25,-350.75 270.19,-350"/>
<polygon fill="black" stroke="black" points="271.93,-354.8 270.43,-344.91 272.41,-344.61 273.91,-354.5 271.93,-354.8"/>
<polyline fill="none" stroke="black" points="270.19,-350 275.14,-349.25"/>
<text text-anchor="start" x="307.12" y="-334.82" font-family="Helvetica,sans-Serif" font-size="14.00">fk_training_sessions_openings</text>
</g>
<!-- users_f89f9d1e -->
<g id="node6" class="node">
<title>users_f89f9d1e</title>
<polygon fill="#e9c2f2" stroke="none" points="9,-227.5 9,-248.75 128,-248.75 128,-227.5 9,-227.5"/>
<text text-anchor="start" x="11" y="-234.45" font-family="Helvetica,sans-Serif" font-weight="bold" font-style="italic" font-size="14.00">public.users</text>
<polygon fill="#e9c2f2" stroke="none" points="128,-227.5 128,-248.75 279,-248.75 279,-227.5 128,-227.5"/>
<text text-anchor="start" x="232" y="-233.45" font-family="Helvetica,sans-Serif" font-size="14.00">[table]</text>
<text text-anchor="start" x="11" y="-213.2" font-family="Helvetica,sans-Serif" font-weight="bold" font-style="italic" font-size="14.00">id</text>
<text text-anchor="start" x="121.5" y="-212.2" font-family="Helvetica,sans-Serif" font-size="14.00"> </text>
<text text-anchor="start" x="130" y="-212.2" font-family="Helvetica,sans-Serif" font-size="14.00">serial not null</text>
<text text-anchor="start" x="121.5" y="-190.95" font-family="Helvetica,sans-Serif" font-size="14.00"> </text>
<text text-anchor="start" x="130" y="-190.95" font-family="Helvetica,sans-Serif" font-size="14.00">auto&#45;incremented</text>
<text text-anchor="start" x="11" y="-169.7" font-family="Helvetica,sans-Serif" font-size="14.00">email</text>
<text text-anchor="start" x="121.5" y="-169.7" font-family="Helvetica,sans-Serif" font-size="14.00"> </text>
<text text-anchor="start" x="130" y="-169.7" font-family="Helvetica,sans-Serif" font-size="14.00">varchar(255) not null</text>
<text text-anchor="start" x="11" y="-148.45" font-family="Helvetica,sans-Serif" font-size="14.00">username</text>
<text text-anchor="start" x="121.5" y="-148.45" font-family="Helvetica,sans-Serif" font-size="14.00"> </text>
<text text-anchor="start" x="130" y="-148.45" font-family="Helvetica,sans-Serif" font-size="14.00">varchar(150) not null</text>
<text text-anchor="start" x="11" y="-127.2" font-family="Helvetica,sans-Serif" font-size="14.00">password_hash</text>
<text text-anchor="start" x="121.5" y="-127.2" font-family="Helvetica,sans-Serif" font-size="14.00"> </text>
<text text-anchor="start" x="130" y="-127.2" font-family="Helvetica,sans-Serif" font-size="14.00">varchar(255) not null</text>
<text text-anchor="start" x="11" y="-105.95" font-family="Helvetica,sans-Serif" font-size="14.00">is_active</text>
<text text-anchor="start" x="121.5" y="-105.95" font-family="Helvetica,sans-Serif" font-size="14.00"> </text>
<text text-anchor="start" x="130" y="-105.95" font-family="Helvetica,sans-Serif" font-size="14.00">bool not null</text>
<text text-anchor="start" x="11" y="-84.7" font-family="Helvetica,sans-Serif" font-size="14.00">created_at</text>
<text text-anchor="start" x="121.5" y="-84.7" font-family="Helvetica,sans-Serif" font-size="14.00"> </text>
<text text-anchor="start" x="130" y="-84.7" font-family="Helvetica,sans-Serif" font-size="14.00">timestamp not null</text>
<text text-anchor="start" x="11" y="-63.45" font-family="Helvetica,sans-Serif" font-size="14.00">updated_at</text>
<text text-anchor="start" x="121.5" y="-63.45" font-family="Helvetica,sans-Serif" font-size="14.00"> </text>
<text text-anchor="start" x="130" y="-63.45" font-family="Helvetica,sans-Serif" font-size="14.00">timestamp not null</text>
<polygon fill="none" stroke="#888888" points="8,-56.5 8,-249.75 280,-249.75 280,-56.5 8,-56.5"/>
</g>
<!-- training_sessions_e3215d78&#45;&gt;users_f89f9d1e -->
<g id="edge5" class="edge">
<title>training_sessions_e3215d78:w&#45;&gt;users_f89f9d1e:e</title>
<path fill="none" stroke="black" d="M530.39,-305.15C527.34,-303.15 524.12,-300.82 519,-298.88 417.21,-260.17 393.69,-219.42 289.95,-216.99"/>
<polygon fill="black" stroke="black" points="535.14,-306.64 543.33,-313.94 540.23,-308.25 544.36,-309.55 544.36,-309.55 544.36,-309.55 540.23,-308.25 546.03,-305.36 535.14,-306.64"/>
<polygon fill="black" stroke="black" points="534.53,-301.21 531.52,-310.75 529.62,-310.15 532.62,-300.61 534.53,-301.21"/>
<polyline fill="none" stroke="black" points="533.98,-306.28 529.21,-304.78"/>
<polygon fill="black" stroke="black" points="280.94,-221.89 281.06,-211.89 283.06,-211.91 282.94,-221.91 280.94,-221.89"/>
<polyline fill="none" stroke="black" points="280,-216.88 285,-216.93"/>
<polygon fill="black" stroke="black" points="285.94,-221.94 286.06,-211.94 288.06,-211.97 287.94,-221.97 285.94,-221.94"/>
<polyline fill="none" stroke="black" points="285,-216.93 290,-216.99"/>
<text text-anchor="start" x="306" y="-302.82" font-family="Helvetica,sans-Serif" font-size="14.00">training_sessions_user_id_fkey</text>
</g>
<!-- training_items_d80bd731 -->
<g id="node4" class="node">
<title>training_items_d80bd731</title>
<polygon fill="#e9c2f2" stroke="none" points="1151.75,-490.25 1151.75,-511.5 1319.25,-511.5 1319.25,-490.25 1151.75,-490.25"/>
<text text-anchor="start" x="1153.75" y="-497.2" font-family="Helvetica,sans-Serif" font-weight="bold" font-style="italic" font-size="14.00">public.training_items</text>
<polygon fill="#e9c2f2" stroke="none" points="1319.25,-490.25 1319.25,-511.5 1447,-511.5 1447,-490.25 1319.25,-490.25"/>
<text text-anchor="start" x="1400" y="-496.2" font-family="Helvetica,sans-Serif" font-size="14.00">[table]</text>
<text text-anchor="start" x="1153.75" y="-475.95" font-family="Helvetica,sans-Serif" font-weight="bold" font-style="italic" font-size="14.00">id</text>
<text text-anchor="start" x="1294.88" y="-474.95" font-family="Helvetica,sans-Serif" font-size="14.00"> </text>
<text text-anchor="start" x="1321.25" y="-474.95" font-family="Helvetica,sans-Serif" font-size="14.00">serial not null</text>
<text text-anchor="start" x="1294.88" y="-453.7" font-family="Helvetica,sans-Serif" font-size="14.00"> </text>
<text text-anchor="start" x="1321.25" y="-453.7" font-family="Helvetica,sans-Serif" font-size="14.00">auto&#45;incremented</text>
<text text-anchor="start" x="1153.75" y="-432.45" font-family="Helvetica,sans-Serif" font-size="14.00">session_id</text>
<text text-anchor="start" x="1294.88" y="-432.45" font-family="Helvetica,sans-Serif" font-size="14.00"> </text>
<text text-anchor="start" x="1321.25" y="-432.45" font-family="Helvetica,sans-Serif" font-size="14.00">int4 not null</text>
<text text-anchor="start" x="1153.75" y="-411.2" font-family="Helvetica,sans-Serif" font-size="14.00">order_index</text>
<text text-anchor="start" x="1294.88" y="-411.2" font-family="Helvetica,sans-Serif" font-size="14.00"> </text>
<text text-anchor="start" x="1321.25" y="-411.2" font-family="Helvetica,sans-Serif" font-size="14.00">int4 not null</text>
<text text-anchor="start" x="1153.75" y="-389.95" font-family="Helvetica,sans-Serif" font-size="14.00">fen</text>
<text text-anchor="start" x="1294.88" y="-389.95" font-family="Helvetica,sans-Serif" font-size="14.00"> </text>
<text text-anchor="start" x="1321.25" y="-389.95" font-family="Helvetica,sans-Serif" font-size="14.00">varchar not null</text>
<text text-anchor="start" x="1153.75" y="-368.7" font-family="Helvetica,sans-Serif" font-size="14.00">correct_move_uci</text>
<text text-anchor="start" x="1294.88" y="-368.7" font-family="Helvetica,sans-Serif" font-size="14.00"> </text>
<text text-anchor="start" x="1321.25" y="-368.7" font-family="Helvetica,sans-Serif" font-size="14.00">varchar not null</text>
<polygon fill="none" stroke="#888888" points="1150.75,-361.75 1150.75,-512.5 1448,-512.5 1448,-361.75 1150.75,-361.75"/>
</g>
<!-- training_items_d80bd731&#45;&gt;training_sessions_e3215d78 -->
<g id="edge4" class="edge">
<title>training_items_d80bd731:w&#45;&gt;training_sessions_e3215d78:e</title>
<path fill="none" stroke="black" d="M1135.4,-437.13C1033.33,-437.14 1000.24,-437.24 895.75,-437.25"/>
<polygon fill="black" stroke="black" points="1140.42,-437.13 1150.42,-441.63 1145.75,-437.13 1150.08,-437.13 1150.08,-437.13 1150.08,-437.13 1145.75,-437.13 1150.42,-432.63 1140.42,-437.13"/>
<polygon fill="black" stroke="black" points="1138.2,-432.13 1138.2,-442.13 1136.2,-442.13 1136.2,-432.13 1138.2,-432.13"/>
<polyline fill="none" stroke="black" points="1139.2,-437.13 1134.2,-437.13"/>
<polygon fill="black" stroke="black" points="886.75,-442.25 886.75,-432.25 888.75,-432.25 888.75,-442.25 886.75,-442.25"/>
<polyline fill="none" stroke="black" points="885.75,-437.25 890.75,-437.25"/>
<polygon fill="black" stroke="black" points="891.75,-442.25 891.75,-432.25 893.75,-432.25 893.75,-442.25 891.75,-442.25"/>
<polyline fill="none" stroke="black" points="890.75,-437.25 895.75,-437.25"/>
<text text-anchor="start" x="911.75" y="-441.2" font-family="Helvetica,sans-Serif" font-size="14.00">training_items_session_id_fkey</text>
</g>
<!-- training_responses_8ccbbe43 -->
<g id="node5" class="node">
<title>training_responses_8ccbbe43</title>
<polygon fill="#e9c2f2" stroke="none" points="1725.25,-532.5 1725.25,-553.75 1929.5,-553.75 1929.5,-532.5 1725.25,-532.5"/>
<text text-anchor="start" x="1727.25" y="-539.45" font-family="Helvetica,sans-Serif" font-weight="bold" font-style="italic" font-size="14.00">public.training_responses</text>
<polygon fill="#e9c2f2" stroke="none" points="1929.5,-532.5 1929.5,-553.75 2077.5,-553.75 2077.5,-532.5 1929.5,-532.5"/>
<text text-anchor="start" x="2030.5" y="-538.45" font-family="Helvetica,sans-Serif" font-size="14.00">[table]</text>
<text text-anchor="start" x="1727.25" y="-518.2" font-family="Helvetica,sans-Serif" font-weight="bold" font-style="italic" font-size="14.00">id</text>
<text text-anchor="start" x="1898.38" y="-517.2" font-family="Helvetica,sans-Serif" font-size="14.00"> </text>
<text text-anchor="start" x="1931.5" y="-517.2" font-family="Helvetica,sans-Serif" font-size="14.00">serial not null</text>
<text text-anchor="start" x="1898.38" y="-495.95" font-family="Helvetica,sans-Serif" font-size="14.00"> </text>
<text text-anchor="start" x="1931.5" y="-495.95" font-family="Helvetica,sans-Serif" font-size="14.00">auto&#45;incremented</text>
<text text-anchor="start" x="1727.25" y="-474.7" font-family="Helvetica,sans-Serif" font-size="14.00">item_id</text>
<text text-anchor="start" x="1898.38" y="-474.7" font-family="Helvetica,sans-Serif" font-size="14.00"> </text>
<text text-anchor="start" x="1931.5" y="-474.7" font-family="Helvetica,sans-Serif" font-size="14.00">int4 not null</text>
<text text-anchor="start" x="1727.25" y="-453.45" font-family="Helvetica,sans-Serif" font-size="14.00">submitted_move_uci</text>
<text text-anchor="start" x="1898.38" y="-453.45" font-family="Helvetica,sans-Serif" font-size="14.00"> </text>
<text text-anchor="start" x="1931.5" y="-453.45" font-family="Helvetica,sans-Serif" font-size="14.00">varchar not null</text>
<text text-anchor="start" x="1727.25" y="-432.2" font-family="Helvetica,sans-Serif" font-size="14.00">is_correct</text>
<text text-anchor="start" x="1898.38" y="-432.2" font-family="Helvetica,sans-Serif" font-size="14.00"> </text>
<text text-anchor="start" x="1931.5" y="-432.2" font-family="Helvetica,sans-Serif" font-size="14.00">bool not null</text>
<text text-anchor="start" x="1727.25" y="-410.95" font-family="Helvetica,sans-Serif" font-size="14.00">reason</text>
<text text-anchor="start" x="1898.38" y="-410.95" font-family="Helvetica,sans-Serif" font-size="14.00"> </text>
<text text-anchor="start" x="1931.5" y="-410.95" font-family="Helvetica,sans-Serif" font-size="14.00">varchar not null</text>
<text text-anchor="start" x="1727.25" y="-389.7" font-family="Helvetica,sans-Serif" font-size="14.00">fen_after</text>
<text text-anchor="start" x="1898.38" y="-389.7" font-family="Helvetica,sans-Serif" font-size="14.00"> </text>
<text text-anchor="start" x="1931.5" y="-389.7" font-family="Helvetica,sans-Serif" font-size="14.00">varchar</text>
<text text-anchor="start" x="1727.25" y="-368.45" font-family="Helvetica,sans-Serif" font-size="14.00">created_at</text>
<text text-anchor="start" x="1898.38" y="-368.45" font-family="Helvetica,sans-Serif" font-size="14.00"> </text>
<text text-anchor="start" x="1931.5" y="-368.45" font-family="Helvetica,sans-Serif" font-size="14.00">timestamptz not null</text>
<polygon fill="none" stroke="#888888" points="1724.25,-361.5 1724.25,-554.75 2078.5,-554.75 2078.5,-361.5 1724.25,-361.5"/>
</g>
<!-- training_responses_8ccbbe43&#45;&gt;training_items_d80bd731 -->
<g id="edge3" class="edge">
<title>training_responses_8ccbbe43:w&#45;&gt;training_items_d80bd731:e</title>
<path fill="none" stroke="black" d="M1714.38,-479.38C1602.97,-479.39 1569.32,-479.61 1457.94,-479.62"/>
<polygon fill="black" stroke="black" points="1723.25,-474.38 1723.25,-484.38 1721.25,-484.38 1721.25,-474.38 1723.25,-474.38"/>
<polyline fill="none" stroke="black" points="1724.25,-479.38 1719.25,-479.38"/>
<polygon fill="black" stroke="black" points="1718.25,-474.38 1718.25,-484.38 1716.25,-484.38 1716.25,-474.38 1718.25,-474.38"/>
<polyline fill="none" stroke="black" points="1719.25,-479.38 1714.25,-479.38"/>
<polygon fill="black" stroke="black" points="1449,-484.62 1449,-474.62 1451,-474.62 1451,-484.62 1449,-484.62"/>
<polyline fill="none" stroke="black" points="1448,-479.62 1453,-479.62"/>
<polygon fill="black" stroke="black" points="1454,-484.62 1454,-474.62 1456,-474.62 1456,-484.62 1454,-484.62"/>
<polyline fill="none" stroke="black" points="1453,-479.62 1458,-479.62"/>
<text text-anchor="start" x="1474" y="-483.57" font-family="Helvetica,sans-Serif" font-size="14.00">training_responses_item_id_fkey</text>
</g>
</g>
</svg>
