<?xml version="1.0" encoding="utf-8"?>
<!DOCTYPE svg PUBLIC "-//W3C//DTD SVG 20010904//EN" "http://www.w3.org/TR/2001/REC-SVG-20010904/DTD/svg10.dtd">
<svg version="1.0" width="940.5pt" height="940.5pt" viewBox="0 0 940.5 940.5" preserveAspectRatio="xMidYMid meet" xmlns="http://www.w3.org/2000/svg">
<g transform="translate(0,940.5)scale(.075,.075)" fill="#000">
    <path id="path1" d="M 5950 -11944 c -480 35 -992 136 -1408 279 -814 279 -1490 702 -2107 1319 -238 238 -382 401 -535 606 -14 19 -40 53 -58 77 -60 81 -189 277 -280 428 -372 619 -629 1351 -732 2085 -71 501 -63 1144 20 1645 122 741 365 1402 741 2023 476 782 1185 1483 1971 1945 713 419 1471 659 2320 733 230 20 718 15 943 -10 673 -75 1242 -239 1827 -528 387 -192 725 -412 1088 -709 158 -129 567 -541 695 -699 307 -380 481 -638 670 -989 213 -398 369 -800 485 -1256 85 -335 136 -634 161 -959 14 -169 13 -652 -1 -846 -66 -927 -398 -1884 -929 -2679 -475 -711 -1142 -1334 -1880 -1756 -671 -383 -1355 -603 -2151 -690 -139 -15 -711 -28 -840 -19 z " />
    <path id="path2" d="M 7726 -10612 c -9 38 -68 226 -243 775 -14 43 -21 82 -17 86 5 4 47 33 94 63 207 137 399 323 643 626 163 202 772 978 929 1183 51 67 160 207 241 313 302 390 345 450 380 531 55 127 72 204 71 335 -1 170 -45 319 -135 456 -58 88 -255 294 -314 329 -175 102 -457 112 -645 23 -77 -37 -153 -111 -205 -200 -104 -178 -264 -318 -492 -432 -175 -87 -391 -138 -641 -150 -375 -19 -535 -54 -780 -172 -235 -113 -442 -302 -560 -512 -79 -140 -130 -292 -153 -464 -11 -78 -7 -353 7 -423 5 -29 5 -29 -10 -11 -9 11 -34 66 -56 123 -152 389 -103 826 134 1185 128 195 247 323 557 598 96 85 237 211 314 280 318 282 605 572 755 759 316 394 484 793 516 1216 3 51 1 155 -7 240 -18 218 -22 196 36 212 119 32 201 97 251 199 32 66 40 135 22 189 l -13 40 -2243 3 -2243 2 -15 -35 c -19 -47 -18 -91 6 -169 17 -53 32 -77 75 -121 31 -32 77 -66 109 -81 l 54 -25 8 -82 c 4 -51 3 -118 -5 -176 -23 -183 -68 -316 -174 -511 -164 -304 -240 -487 -302 -725 -115 -443 -94 -925 61 -1416 14 -45 23 -83 21 -85 -6 -7 -183 95 -270 155 -41 28 -133 99 -205 156 -71 58 -133 105 -137 105 -15 0 3 -422 24 -562 72 -478 249 -895 540 -1273 83 -107 320 -356 403 -423 l 40 -32 -41 0 c -53 0 -262 44 -365 77 -45 14 -120 43 -168 64 -49 20 -88 33 -88 28 0 -16 100 -209 156 -300 199 -326 504 -654 819 -880 385 -278 758 -450 1215 -563 316 -77 517 -99 883 -97 l 79 1 -4 110 c -2 61 -1 109 3 108 3 -2 40 -44 81 -93 211 -252 479 -444 738 -530 76 -25 198 -53 239 -54 31 -1 33 1 27 27 z m 604 7602 c 89 14 213 64 285 115 167 118 240 261 251 494 4 70 4 140 0 155 l -6 26 -2700 0 -2699 0 -12 -22 c -15 -28 -5 -242 15 -313 54 -195 179 -333 370 -409 141 -57 31 -54 2316 -55 1383 -1 2138 3 2180 9 z " fill="#F4C430" />
    <path id="path3" d="M 7550 -8671 c 0 10 18 72 41 137 77 225 173 338 346 408 91 38 363 83 363 61 0 -17 -135 -274 -166 -317 -94 -127 -231 -213 -434 -271 -133 -38 -150 -40 -150 -18 z " />
  </g>
</svg>